<mxfile host="app.diagrams.net" modified="2023-12-24T07:41:13.927Z" agent="Mozilla/5.0 (Macintosh; Intel Mac OS X 10_15_7) AppleWebKit/537.36 (KHTML, like Gecko) Chrome/120.0.0.0 Safari/537.36" version="22.1.11" etag="o0pZJVKsKhr6ovA049rM" type="github">
  <diagram name="Page-1" id="V2APz4wkxG4h9ID-R-tH">
    <mxGraphModel>
      <root>
        <mxCell id="0" />
        <mxCell id="1" parent="0" />
      </root>
    </mxGraphModel>
  </diagram>
</mxfile>
